<svg xmlns="http://www.w3.org/2000/svg" width="64pt" height="64pt" viewBox="0 0 22.58 22.58"><g stroke-width=".8" color="#000"><path fill="#d0f2fb" d="M69.33 250.9a6.2 6.2 0 0 0-6.08 6.07c-.09 3.34 2.86 6.05 6.08 6.1s6.08-2.89 6.09-6.09a6.24 6.24 0 0 0-6.09-6.08" style="-inkscape-stroke:none" transform="translate(-76 -312.94)scale(1.25656)"/><path fill="#a7e3fa" d="M69.33 253.24a3.8 3.8 0 0 0-3.74 3.74c-.04 2.03 1.74 3.7 3.73 3.74a3.8 3.8 0 0 0 3.75-3.74 3.83 3.83 0 0 0-3.74-3.74" style="-inkscape-stroke:none" transform="translate(-76 -312.94)scale(1.25656)"/><path fill="#aaeaf2" d="M69.33 250.9a6 6 0 0 0-4.49 2.05 6 6 0 0 1 3.96-1.52c3.3 0 6.1 2.89 6.09 6.08 0 1.48-.62 2.9-1.6 4a6.2 6.2 0 0 0 2.13-4.53 6.24 6.24 0 0 0-6.09-6.08" style="-inkscape-stroke:none" transform="translate(-76 -312.94)scale(1.25656)"/><path fill="#87d1ee" d="M69.33 253.77a3.3 3.3 0 0 1 3.21 3.21c0 1.68-1.51 3.26-3.2 3.21-1.71-.04-3.25-1.5-3.22-3.2a3.3 3.3 0 0 1 3.2-3.22" style="-inkscape-stroke:none" transform="translate(-76 -312.94)scale(1.25656)"/><path fill="#70c2ef" d="M69.25 253.77a3.2 3.2 0 0 0-2.4 1.21c.55-.43 1.23-.7 1.95-.68a3.33 3.33 0 0 1 3.2 3.2 3.2 3.2 0 0 1-.73 1.99 3.3 3.3 0 0 0 1.26-2.52 3.3 3.3 0 0 0-3.3-3.21" style="-inkscape-stroke:none" transform="translate(-76 -312.94)scale(1.25656)"/><path fill="#3a4d5c" d="M68.5 256a.3.3 0 0 0-.19.08l-3.35 3.36c-.37.36-.33.89-.05 1.17s.8.31 1.17-.05l3.35-3.35a.26.26 0 0 0 0-.37l-.74-.76a.3.3 0 0 0-.19-.07m4.88-6.11a.26.26 0 0 0-.38 0l-2.06 2.06c-.29.28-.45.68-.45 1.09.03.41-.03.88-.3 1.15l-1.13 1.14c-.1.1-.1.27 0 .37l.75.75c.1.1.27.1.38 0l1.13-1.14c.38-.3.69-.3 1.15-.3q.63 0 1.1-.45l2.05-2.05c.1-.1.1-.27 0-.38" style="-inkscape-stroke:none" transform="translate(-76 -312.94)scale(1.25656)"/><path fill="#2f414d" d="m68.24 256.16.66.68c.1.1.1.27 0 .37l-3.35 3.35a1 1 0 0 1-.35.22c.27.1.62.04.88-.22l3.35-3.35c.1-.1.1-.27 0-.37l-.74-.76z" style="-inkscape-stroke:none" transform="translate(-76 -312.94)scale(1.25656)"/><path fill="#3a4d5c" d="M64.74 251.05c-.38 0-.76.14-1.04.42a.26.26 0 0 0 0 .38l8.72 8.71c.36.36.88.33 1.16.05a.83.83 0 0 0-.04-1.17l-4.23-4.23c-.23-.23-.37-.4-.37-.64v-.44a1 1 0 0 0-.2-.58q-.19-.23-.36-.4a9 9 0 0 0-2.44-1.8q-.62-.3-1.2-.3" style="-inkscape-stroke:none" transform="translate(-76 -312.94)scale(1.25656)"/><path fill="#2f414d" d="M63.7 251.47a.3.3 0 0 0-.08.23c.6-.23 1.29-.05 1.79.18a9 9 0 0 1 2.8 2.2c.22.35.2.62.2 1.02 0 .23.14.41.37.64l4.23 4.23c.25.24.3.56.24.83q.19-.06.33-.2a.83.83 0 0 0-.04-1.16l-4.23-4.23c-.37-.36-.37-.6-.37-1.08a1 1 0 0 0-.2-.58 8.5 8.5 0 0 0-2.8-2.2c-.86-.4-1.67-.44-2.24.12" style="-inkscape-stroke:none" transform="translate(-76 -312.94)scale(1.25656)"/><path fill="#3a4d5c" d="M70.43 263.88h-6.22c-.52 0-.86.4-.86.79 0 .4.34.8.86.8l6.22-.01c.48.49 1.29.78 2.24.78q1.07 0 1.81-.42c.48-.26.84-.66.84-1.15 0-.5-.36-.9-.84-1.16a4 4 0 0 0-1.94-.42c-.82 0-1.63.3-2.1.78" style="-inkscape-stroke:none" transform="translate(-76 -312.94)scale(1.25656)"/><path fill="#2f414d" d="M72.67 263.1c-.95 0-1.76.29-2.24.77H64.2c-.51 0-.85.4-.85.8q0 .14.05.26c.11-.29.4-.53.8-.53h6.23a3 3 0 0 1 2.24-.78q1.07 0 1.81.42c.4.21.7.52.8.9l.04-.27c0-.5-.36-.9-.84-1.16a4 4 0 0 0-1.8-.42" style="-inkscape-stroke:none" transform="translate(-76 -312.94)scale(1.25656)"/><path d="m73 249.9-1.43 1.42a6 6 0 0 0-5.12.3c-1.15-.68-2.15-.7-2.75-.15-.1.1-.1.27 0 .38l1.09 1.08a6.1 6.1 0 0 0-.94 6.7.26.26 0 0 0 .48-.23 5.5 5.5 0 0 1 .83-6.1l1.29 1.3a3.7 3.7 0 0 0-.54 3.89l-.95.95c-.37.36-.33.89-.05 1.17s.8.31 1.17-.05l.77-.77a3.7 3.7 0 0 0 4.87.07l.7.7c.36.36.88.33 1.16.05a.83.83 0 0 0-.04-1.17l-.84-.84a3.7 3.7 0 0 0-.18-3.58q.62-.01 1.04-.45l.5-.5a5.5 5.5 0 0 1 .11 5.64.26.26 0 1 0 .46.26 6.1 6.1 0 0 0-.18-6.28l1.17-1.17c.1-.1.1-.27 0-.38-.14-.12-.27-.08-.37 0l-2.06 2.06q-.3.3-.72.3a1.8 1.8 0 0 0-1.53.45l-.94.95-.38-.38.95-.95c.52-.5.45-.92.45-1.52q0-.42.3-.72l2.06-2.06c.1-.1.1-.27 0-.37-.13-.12-.27-.09-.38 0m.75.74-2.06 2.06a.26.26 0 0 0 .38.38l2.06-2.06c.1-.1.1-.27 0-.38q-.21-.17-.38 0m.75.75-2.06 2.06a.26.26 0 0 0 .37.38l2.06-2.06c.1-.1.1-.27 0-.38-.13-.13-.28-.08-.37 0m-5.17.04q.98 0 1.83.3l-.22.23c-.29.28-.45.68-.45 1.09v.37a4 4 0 0 0-1.95-.1c-.5-.5-1.06-1-1.57-1.37a5.5 5.5 0 0 1 2.36-.52m-1.02 2.43q.1.13.1.27v.44c0 .45.28.77.53 1.02l4.22 4.22c.2.2.14.33.05.42-.1.1-.22.15-.42-.04l-8.45-8.45c.92-.73 3.17 1.26 3.97 2.12m2.07.08q-.07.15-.18.26l-.95.95q-.3-.28-.31-.58v-.44a1 1 0 0 0-.07-.33 4 4 0 0 1 1.51.14m-3.56 1.03 1.3 1.3-1.8 1.81a3.2 3.2 0 0 1 .5-3.11m5.07.07a3.2 3.2 0 0 1 .41 3.16l-1.93-1.93.95-.95q.23-.23.57-.28m-3.39 1.6.37.38-3.16 3.17c-.2.2-.33.14-.43.04-.09-.09-.15-.22.05-.42zm.75.75 2.1 2.1a3.2 3.2 0 0 1-4.12-.08zm3.62 3.88a5.5 5.5 0 0 1-7.04.02.26.26 0 0 0-.37.04c-.1.12-.08.29.04.38a6.1 6.1 0 0 0 7.7-.04.25.25 0 0 0 .04-.37q-.2-.18-.37-.03m-2.44 2.6H64.2c-.51 0-.85.4-.85.8s.34.8.85.8l6.23-.01c.48.49 1.29.78 2.24.78q1.07 0 1.81-.42c.48-.26.84-.66.84-1.15 0-.5-.36-.9-.84-1.16a4 4 0 0 0-1.94-.42c-.82 0-1.63.3-2.1.78m3.8.1c.38.21.56.47.56.7q0 .36-.56.7c-.38.2-.94.34-1.56.34-.91 0-1.69-.33-1.97-.68a.3.3 0 0 0-.2-.1h-6.3c-.27 0-.32-.13-.32-.26s.05-.27.32-.27h6.3q.11 0 .2-.1c.28-.35 1.06-.68 1.82-.68q1.15.02 1.7.35" style="-inkscape-stroke:none" transform="translate(-76 -312.94)scale(1.25656)"/></g></svg>