<?xml version="1.0" encoding="UTF-8" standalone="no"?>
<!-- Created with Inkscape (http://www.inkscape.org/) -->

<svg
   width="64pt"
   height="64pt"
   viewBox="0 0 22.577778 22.577778"
   version="1.1"
   id="svg831"
   inkscape:version="1.1.1 (3bf5ae0d25, 2021-09-20)"
   sodipodi:docname="#1.svg"
   inkscape:export-filename="C:\Users\User\Desktop\Done Januari II\E\14 - Tea Pot.png"
   inkscape:export-xdpi="576"
   inkscape:export-ydpi="576"
   xmlns:inkscape="http://www.inkscape.org/namespaces/inkscape"
   xmlns:sodipodi="http://sodipodi.sourceforge.net/DTD/sodipodi-0.dtd"
   xmlns="http://www.w3.org/2000/svg"
   xmlns:svg="http://www.w3.org/2000/svg"
   xmlns:rdf="http://www.w3.org/1999/02/22-rdf-syntax-ns#"
   xmlns:cc="http://creativecommons.org/ns#"
   xmlns:dc="http://purl.org/dc/elements/1.1/">
  <defs
     id="defs825">
    <pattern
       id="EMFhbasepattern"
       patternUnits="userSpaceOnUse"
       width="6"
       height="6"
       x="0"
       y="0" />
    <pattern
       id="EMFhbasepattern-9"
       patternUnits="userSpaceOnUse"
       width="6"
       height="6"
       x="0"
       y="0" />
    <pattern
       id="EMFhbasepattern-0"
       patternUnits="userSpaceOnUse"
       width="6"
       height="6"
       x="0"
       y="0" />
    <pattern
       id="EMFhbasepattern-7"
       patternUnits="userSpaceOnUse"
       width="6"
       height="6"
       x="0"
       y="0" />
    <pattern
       id="EMFhbasepattern-2"
       patternUnits="userSpaceOnUse"
       width="6"
       height="6"
       x="0"
       y="0" />
    <pattern
       id="EMFhbasepattern-98"
       patternUnits="userSpaceOnUse"
       width="6"
       height="6"
       x="0"
       y="0" />
    <pattern
       id="EMFhbasepattern-6"
       patternUnits="userSpaceOnUse"
       width="6"
       height="6"
       x="0"
       y="0" />
    <pattern
       id="EMFhbasepattern-01"
       patternUnits="userSpaceOnUse"
       width="6"
       height="6"
       x="0"
       y="0" />
    <pattern
       id="EMFhbasepattern-07"
       patternUnits="userSpaceOnUse"
       width="6"
       height="6"
       x="0"
       y="0" />
    <pattern
       id="EMFhbasepattern-8"
       patternUnits="userSpaceOnUse"
       width="6"
       height="6"
       x="0"
       y="0" />
    <pattern
       id="EMFhbasepattern-4"
       patternUnits="userSpaceOnUse"
       width="6"
       height="6"
       x="0"
       y="0" />
    <pattern
       id="EMFhbasepattern-40"
       patternUnits="userSpaceOnUse"
       width="6"
       height="6"
       x="0"
       y="0" />
    <pattern
       id="EMFhbasepattern-08"
       patternUnits="userSpaceOnUse"
       width="6"
       height="6"
       x="0"
       y="0" />
    <pattern
       id="EMFhbasepattern-04"
       patternUnits="userSpaceOnUse"
       width="6"
       height="6"
       x="0"
       y="0" />
    <pattern
       id="EMFhbasepattern-014"
       patternUnits="userSpaceOnUse"
       width="6"
       height="6"
       x="0"
       y="0" />
    <pattern
       id="EMFhbasepattern-27"
       patternUnits="userSpaceOnUse"
       width="6"
       height="6"
       x="0"
       y="0" />
    <pattern
       id="EMFhbasepattern-09"
       patternUnits="userSpaceOnUse"
       width="6"
       height="6"
       x="0"
       y="0" />
    <pattern
       id="EMFhbasepattern-5"
       patternUnits="userSpaceOnUse"
       width="6"
       height="6"
       x="0"
       y="0" />
    <pattern
       id="EMFhbasepattern-018"
       patternUnits="userSpaceOnUse"
       width="6"
       height="6"
       x="0"
       y="0" />
  </defs>
  <sodipodi:namedview
     id="base"
     pagecolor="#ffffff"
     bordercolor="#666666"
     borderopacity="1.0"
     inkscape:pageopacity="0.0"
     inkscape:pageshadow="2"
     inkscape:zoom="6.4882571"
     inkscape:cx="42.61545"
     inkscape:cy="42.61545"
     inkscape:document-units="pt"
     inkscape:current-layer="layer1"
     showgrid="false"
     units="pt"
     inkscape:window-width="1920"
     inkscape:window-height="1001"
     inkscape:window-x="-9"
     inkscape:window-y="41"
     inkscape:window-maximized="1"
     inkscape:pagecheckerboard="true"
     inkscape:showpageshadow="false"
     inkscape:object-paths="true"
     inkscape:snap-intersection-paths="true"
     inkscape:snap-smooth-nodes="true"
     inkscape:snap-midpoints="true"
     showguides="true"
     inkscape:snap-bbox="true"
     inkscape:bbox-nodes="true"
     inkscape:snap-nodes="false"
     inkscape:snap-global="true">
    <inkscape:grid
       type="xygrid"
       id="grid1378" />
    <sodipodi:guide
       position="0.97013831,21.607643"
       orientation="78.000048,0"
       id="guide1380"
       inkscape:locked="false" />
    <sodipodi:guide
       position="0.97013831,0.97013129"
       orientation="0,78.000005"
       id="guide1382"
       inkscape:locked="false" />
    <sodipodi:guide
       position="21.607639,0.97013129"
       orientation="-78.000048,0"
       id="guide1384"
       inkscape:locked="false" />
    <sodipodi:guide
       position="21.607639,21.607643"
       orientation="0,-78.000005"
       id="guide1386"
       inkscape:locked="false" />
  </sodipodi:namedview>
  <metadata
     id="metadata828">
    <rdf:RDF>
      <cc:Work
         rdf:about="">
        <dc:format>image/svg+xml</dc:format>
        <dc:type
           rdf:resource="http://purl.org/dc/dcmitype/StillImage" />
      </cc:Work>
    </rdf:RDF>
  </metadata>
  <g
     inkscape:label="Icon"
     inkscape:groupmode="layer"
     id="layer1"
     transform="translate(0,-274.42223)">
    <g
       id="g21617"
       style="display:inline;stroke-width:0.795824"
       transform="matrix(1.256559,0,0,1.256559,-76.005708,-38.519208)">
      <g
         id="g11891"
         style="stroke-width:0.795824">
        <path
           style="color:#000000;fill:#d0f2fb;stroke-width:0.795824;stroke-linecap:round;stroke-linejoin:round;-inkscape-stroke:none"
           d="m 69.332031,250.89648 c -3.281197,-0.005 -6.003032,2.76445 -6.085937,6.07813 -0.08339,3.33324 2.864607,6.04998 6.082031,6.0918 3.233854,0.042 6.077789,-2.88679 6.087891,-6.08399 0.01012,-3.19576 -2.796317,-6.08069 -6.083985,-6.08594 z"
           id="path87909" />
        <path
           style="color:#000000;fill:#a7e3fa;fill-opacity:1;stroke-width:0.795824;stroke-linecap:round;stroke-linejoin:round;-inkscape-stroke:none"
           d="m 69.333984,253.23828 c -2.029197,-0.0248 -3.708233,1.72238 -3.74414,3.73828 -0.03615,2.0296 1.737607,3.69661 3.734375,3.7461 2.01647,0.0499 3.746853,-1.74961 3.748047,-3.74219 0.0011,-1.99088 -1.713841,-3.71745 -3.738282,-3.74219 z"
           id="path88293" />
        <path
           id="path115552"
           style="color:#000000;fill:#aaeaf2;fill-opacity:1;stroke-width:0.795824;stroke-linecap:round;stroke-linejoin:round;-inkscape-stroke:none"
           d="m 69.332204,250.89635 c -1.766784,-0.003 -3.371366,0.79928 -4.489132,2.05724 1.068774,-0.94912 2.455651,-1.53037 3.959966,-1.52808 3.287667,0.005 6.093986,2.89018 6.083866,6.08594 -0.0047,1.4822 -0.618559,2.90683 -1.597835,4.0044 1.282489,-1.14498 2.121522,-2.79975 2.127002,-4.53357 0.01012,-3.19576 -2.796199,-6.08068 -6.083867,-6.08593 z" />
        <path
           style="color:#000000;fill:#87d1ee;stroke-width:0.795824;stroke-linecap:round;stroke-linejoin:round;-inkscape-stroke:none"
           d="m 69.328084,253.76758 c 1.723662,0.0211 3.215816,1.53035 3.214844,3.21289 -0.001,1.68083 -1.5172,3.2547 -3.205078,3.21289 -1.707581,-0.0423 -3.249241,-1.49529 -3.21875,-3.20703 0.03073,-1.72544 1.490079,-3.23972 3.208984,-3.21875 z"
           id="path88299" />
        <path
           id="path122275"
           style="color:#000000;fill:#70c2ef;fill-opacity:1;stroke-width:0.795824;stroke-linecap:round;stroke-linejoin:round;-inkscape-stroke:none"
           d="m 69.247456,253.76749 c -0.948799,0.0148 -1.811716,0.49616 -2.390037,1.21698 0.543674,-0.4345 1.219756,-0.69662 1.941483,-0.68781 1.723663,0.0211 3.215765,1.5307 3.214791,3.21324 -4.28e-4,0.72359 -0.28153,1.427 -0.736388,1.99057 0.756182,-0.60861 1.264978,-1.54669 1.265555,-2.52026 9.74e-4,-1.68254 -1.491128,-3.19162 -3.214791,-3.21272 -0.02686,-3.3e-4 -0.05389,-4.2e-4 -0.08061,0 z" />
        <path
           style="color:#000000;fill:#3a4d5c;stroke-width:0.795824;stroke-linecap:round;stroke-linejoin:round;-inkscape-stroke:none"
           d="m 68.501953,256.00586 a 0.26460996,0.26460996 0 0 0 -0.189453,0.0762 l -3.355469,3.35547 c -0.363782,0.36378 -0.327508,0.88929 -0.04687,1.16992 0.280634,0.28063 0.80614,0.31691 1.169922,-0.0469 l 3.351563,-3.35157 a 0.26460996,0.26460996 0 0 0 0.002,-0.37304 l -0.744141,-0.75196 a 0.26460996,0.26460996 0 0 0 -0.1875,-0.0781 z"
           id="path88413" />
        <path
           id="path88405"
           style="color:#000000;fill:#3a4d5c;stroke-width:0.795824;stroke-linecap:round;stroke-linejoin:round;-inkscape-stroke:none"
           d="m 73.376919,249.89641 c -0.04966,-0.0499 -0.117166,-0.078 -0.187587,-0.078 -0.07042,1e-5 -0.13793,0.0281 -0.187584,0.078 l -2.058274,2.05879 c -0.289131,0.28913 -0.451133,0.68097 -0.451135,1.08986 0.02352,0.41595 -0.03521,0.88409 -0.297138,1.15393 l -1.134816,1.13688 c -0.103976,0.10345 -0.103976,0.27173 0,0.37517 l 0.751892,0.74414 c 0.103209,0.1026 0.269897,0.1026 0.373105,0 l 1.132748,-1.13274 c 0.384794,-0.31039 0.691695,-0.29714 1.154451,-0.29714 0.408887,0 0.802791,-0.16201 1.091922,-0.45114 l 2.056723,-2.05879 c 0.102256,-0.10315 0.102256,-0.26944 0,-0.37258"
           sodipodi:nodetypes="ccccccccccccccc" />
        <path
           id="path98904"
           style="color:#000000;fill:#2f414d;fill-opacity:1;stroke-width:0.795824;stroke-linecap:round;stroke-linejoin:round;-inkscape-stroke:none"
           d="m 68.235107,256.15961 0.669211,0.67645 c 0.102017,0.10378 0.101079,0.27047 -0.0021,0.3731 L 65.551,260.56038 c -0.107799,0.1078 -0.229912,0.18061 -0.355534,0.22221 0.27767,0.0943 0.623089,0.0394 0.884701,-0.22221 l 3.351218,-3.35122 c 0.103179,-0.10263 0.104117,-0.26932 0.0021,-0.3731 l -0.74414,-0.7519 z"
           sodipodi:nodetypes="cccccccccc" />
        <path
           style="color:#000000;fill:#3a4d5c;stroke-width:0.795824;stroke-linecap:round;stroke-linejoin:round;-inkscape-stroke:none"
           d="m 64.740234,251.05078 c -0.385135,0.003 -0.757267,0.13616 -1.041015,0.41992 a 0.26460996,0.26460996 0 0 0 0,0.375 l 8.716797,8.71485 c 0.363779,0.36378 0.887336,0.3275 1.167968,0.0469 0.280632,-0.28063 0.318866,-0.80614 -0.04492,-1.16992 L 69.3125,255.21289 c -0.230387,-0.23041 -0.374997,-0.41029 -0.375,-0.63867 v -0.43945 c 5e-6,-0.23297 -0.08925,-0.43274 -0.201172,-0.5879 -0.111927,-0.15515 -0.24333,-0.27654 -0.359375,-0.39257 -0.763942,-0.76395 -1.620787,-1.43452 -2.439453,-1.80664 -0.409333,-0.18606 -0.812131,-0.30029 -1.197266,-0.29688 z"
           id="path88021" />
        <path
           id="path88692"
           style="color:#000000;fill:#2f414d;fill-opacity:1;stroke-width:0.795824;stroke-linecap:round;stroke-linejoin:round;-inkscape-stroke:none"
           d="m 63.699474,251.47047 c -0.05932,0.0592 -0.08712,0.14294 -0.07493,0.22583 0.599248,-0.22432 1.280924,-0.0449 1.783871,0.18035 1.186588,0.57532 2.045245,1.33578 2.798797,2.19935 0.223142,0.35305 0.20102,0.62153 0.20102,1.02733 3e-6,0.22838 0.144785,0.40831 0.375171,0.63872 l 4.226616,4.22454 c 0.24525,0.24525 0.306917,0.56381 0.235643,0.83148 0.129321,-0.0341 0.246907,-0.0991 0.338482,-0.19069 0.280633,-0.28063 0.318828,-0.80617 -0.04496,-1.16995 l -4.226617,-4.22455 c -0.369007,-0.36312 -0.375171,-0.59982 -0.375171,-1.07797 0,-0.23297 -0.0891,-0.43292 -0.20102,-0.58808 -0.637714,-0.82992 -1.822092,-1.74283 -2.798797,-2.19935 -0.859822,-0.39001 -1.664083,-0.43306 -2.238105,0.12299 z"
           sodipodi:nodetypes="ccccccccccccccc" />
        <path
           style="color:#000000;fill:#3a4d5c;stroke-width:0.795824;stroke-linecap:round;stroke-linejoin:round;-inkscape-stroke:none"
           d="m 70.433594,263.875 -6.228516,-0.002 c -0.514467,0 -0.859375,0.39804 -0.859375,0.79492 0,0.39687 0.344908,0.79297 0.859375,0.79297 l 6.228516,-0.002 c 0.478662,0.48778 1.283325,0.78321 2.238281,0.78321 0.696883,0 1.329832,-0.15358 1.810547,-0.41797 0.480714,-0.26439 0.833979,-0.6646 0.833984,-1.15625 9e-6,-0.49166 -0.353268,-0.89381 -0.833984,-1.1582 -0.480716,-0.2644 -1.113657,-0.41602 -1.939287,-0.41598 -0.82563,5e-5 -1.630513,0.29389 -2.109541,0.7813 z"
           id="path87717"
           sodipodi:nodetypes="ccsccsssscc" />
        <path
           id="path127987"
           style="color:#000000;fill:#2f414d;fill-opacity:1;stroke-width:0.795824;stroke-linecap:round;stroke-linejoin:round;-inkscape-stroke:none"
           d="m 72.672053,263.09354 c -0.954371,0 -1.759596,0.29393 -2.238624,0.78134 l -6.228562,-0.002 c -0.514466,0 -0.859377,0.39842 -0.859377,0.7953 0,0.0897 0.01794,0.179 0.05116,0.26406 0.113747,-0.29178 0.410046,-0.5302 0.808217,-0.5302 l 6.228562,0.002 c 0.479028,-0.48741 1.284253,-0.78135 2.238624,-0.78135 0.696889,0 1.329507,0.1516 1.810224,0.416 0.391297,0.21521 0.698304,0.52174 0.798917,0.89348 0.02299,-0.0848 0.03514,-0.17262 0.03514,-0.26406 8e-6,-0.49166 -0.353343,-0.8942 -0.834059,-1.15859 -0.480717,-0.2644 -1.113335,-0.41599 -1.810224,-0.41599 z" />
      </g>
      <path
         id="rect4464"
         style="color:#000000;display:inline;fill:#000000;stroke-width:0.795824;stroke-linecap:round;stroke-linejoin:round;-inkscape-stroke:none"
         d="m 73.001748,249.89641 -1.426787,1.4273 c -0.694375,-0.27551 -1.4512,-0.42736 -2.242757,-0.42736 -1.040339,0 -2.02216,0.26053 -2.87941,0.7214 -1.157793,-0.67583 -2.152785,-0.68961 -2.75332,-0.14728 -0.103976,0.10345 -0.103976,0.27173 0,0.37517 l 1.087786,1.08779 c -0.958484,1.07542 -1.540991,2.49459 -1.540989,4.0473 0,0.95006 0.218186,1.85219 0.607198,2.6541 0.06438,0.13081 0.222454,0.18489 0.353468,0.12092 0.131005,-0.0642 0.18533,-0.22231 0.121438,-0.35346 -0.355047,-0.73189 -0.552937,-1.55242 -0.552937,-2.42156 -2e-6,-1.40958 0.523843,-2.693 1.387512,-3.67213 l 1.286225,1.28571 c -0.536507,0.64775 -0.85938,1.48039 -0.859378,2.3859 -2e-6,0.5353 0.112623,1.04739 0.315743,1.50896 l -0.948264,0.94826 c -0.363781,0.36378 -0.327662,0.88932 -0.04702,1.16995 0.280633,0.28063 0.806172,0.31679 1.169953,-0.047 l 0.774631,-0.77463 c 0.659985,0.58271 1.529154,0.93689 2.477368,0.93689 0.905772,0 1.738641,-0.32262 2.386418,-0.85938 l 0.697632,0.69712 c 0.363778,0.36378 0.887254,0.32762 1.167887,0.047 0.280632,-0.28063 0.318828,-0.80617 -0.04496,-1.16995 l -0.835092,-0.83509 c 0.236271,-0.49091 0.367935,-1.04133 0.367935,-1.62161 3e-6,-0.71638 -0.201014,-1.38742 -0.55087,-1.95699 0.391366,-0.0123 0.765696,-0.17193 1.043347,-0.44958 l 0.500745,-0.50126 c 0.520608,0.8458 0.821659,1.84006 0.821656,2.90731 0,0.99119 -0.259204,1.91984 -0.713134,2.7249 -0.0721,0.1278 -0.02643,0.28988 0.101801,0.36122 0.127196,0.0708 0.287679,0.0255 0.359151,-0.10129 0.497234,-0.88185 0.781349,-1.90136 0.781349,-2.98483 2e-6,-1.21177 -0.355338,-2.34271 -0.966867,-3.29179 l 1.172022,-1.17305 c 0.102269,-0.10314 0.102269,-0.26944 0,-0.37259 -0.137578,-0.12191 -0.274317,-0.0842 -0.373105,0 l -2.058789,2.05621 c -0.190032,0.19003 -0.448001,0.29714 -0.716751,0.29714 -0.511434,-0.0648 -1.021345,-0.0111 -1.529107,0.4532 l -0.947229,0.94671 -0.374137,-0.37362 0.948264,-0.94826 c 0.519914,-0.50402 0.451133,-0.92551 0.451133,-1.52911 0,-0.26875 0.106593,-0.52672 0.296625,-0.71675 l 2.058789,-2.05672 c 0.103989,-0.10344 0.103989,-0.27173 0,-0.37517 -0.130268,-0.1148 -0.269841,-0.0821 -0.375171,0 z m 0.748273,0.74827 -2.05672,2.05827 c -0.103989,0.10344 -0.103989,0.27174 0,0.37517 0.103203,0.10262 0.269899,0.10262 0.373102,0 l 2.058789,-2.05878 c 0.103643,-0.10338 0.103643,-0.27128 0,-0.37466 -0.132008,-0.12484 -0.264448,-0.0979 -0.375171,0 z m 0.748276,0.74983 -2.056723,2.05672 c -0.103989,0.10344 -0.103989,0.27173 0,0.37517 0.103204,0.10261 0.269902,0.10261 0.373105,0 l 2.058273,-2.05879 c 0.102614,-0.1032 0.102614,-0.2699 0,-0.3731 -0.137744,-0.13347 -0.281574,-0.0864 -0.374655,0 z m -5.166093,0.031 c 0.643118,0 1.258562,0.1084 1.83193,0.30851 l -0.22066,0.22118 c -0.289131,0.28913 -0.451133,0.68096 -0.451135,1.08985 v 0.37827 c -0.672457,-0.19505 -1.309614,-0.23546 -1.947683,-0.10077 -0.498221,-0.49477 -1.066318,-1.00694 -1.576649,-1.37045 0.717174,-0.33737 1.518173,-0.52659 2.364197,-0.52659 z m -1.025784,2.42983 c 0.07006,0.0971 0.101804,0.17373 0.101801,0.27957 v 0.43925 c 8e-6,0.44922 0.280387,0.76508 0.529167,1.01389 l 4.226615,4.22455 c 0.197485,0.19748 0.140576,0.32814 0.04703,0.42168 -0.09354,0.0935 -0.224716,0.15048 -0.422196,-0.047 -2.893912,-2.89794 -5.366811,-5.36811 -8.444992,-8.44703 0.916506,-0.7275 3.170835,1.26157 3.96258,2.11512 z m 2.075333,0.0878 c -0.04785,0.0936 -0.110662,0.18043 -0.186552,0.25631 l -0.946714,0.94775 c -0.192346,-0.19992 -0.311089,-0.36696 -0.311091,-0.57309 v -0.43925 c 2e-6,-0.1209 -0.02426,-0.23292 -0.06305,-0.33435 0.505936,-0.0691 1.066366,-0.007 1.507402,0.14263 z m -3.556889,1.02733 1.299663,1.29966 -1.811777,1.81177 c -0.125119,-0.34339 -0.193789,-0.71429 -0.193786,-1.10174 -3e-6,-0.76217 0.263903,-1.45946 0.7059,-2.00969 z m 5.063255,0.0656 c 0.411324,0.53982 0.654743,1.21226 0.654741,1.94458 0,0.43297 -0.08515,0.84486 -0.239779,1.22111 l -1.932697,-1.93166 0.947746,-0.94775 c 0.155024,-0.15503 0.355557,-0.25482 0.569989,-0.28628 z m -3.388424,1.60868 0.37414,0.37414 c -1.056759,1.05591 -2.112373,2.11244 -3.168812,3.16831 -0.197482,0.19748 -0.326586,0.14054 -0.420129,0.047 -0.09354,-0.0935 -0.150453,-0.2242 0.04703,-0.42168 z m 0.748276,0.74776 2.094445,2.09445 c -0.550307,0.44228 -1.247775,0.7059 -2.010212,0.7059 -0.804685,0 -1.53874,-0.2949 -2.102196,-0.78238 z m 3.620969,3.87315 c -0.961271,0.79485 -2.190946,1.27124 -3.536736,1.27124 -1.328589,0 -2.546302,-0.46566 -3.502112,-1.2423 -0.113755,-0.0926 -0.28112,-0.075 -0.373105,0.0393 -0.09259,0.11376 -0.07497,0.28112 0.03928,0.37311 1.046371,0.85022 2.383663,1.3596 3.835942,1.3596 1.471084,0 2.822372,-0.52255 3.874699,-1.39268 0.112951,-0.0932 0.128699,-0.26044 0.03514,-0.3731 -0.123505,-0.12883 -0.264358,-0.12383 -0.373102,-0.0351 z m -2.435511,2.60914 -6.228562,-0.002 c -0.514466,0 -0.859377,0.39842 -0.859377,0.7953 0,0.39687 0.344911,0.79272 0.859377,0.79272 l 6.228562,-0.002 c 0.478661,0.48778 1.283666,0.78342 2.238624,0.78342 0.696881,0 1.32951,-0.15368 1.810224,-0.41807 0.480713,-0.26439 0.834054,-0.66435 0.834059,-1.156 8e-6,-0.49166 -0.353343,-0.89419 -0.834059,-1.15858 -0.480717,-0.2644 -1.113335,-0.416 -1.938965,-0.416 -0.82563,0 -1.630855,0.29393 -2.109883,0.78134 z m 3.795117,0.0977 c 0.381125,0.20962 0.560695,0.4639 0.56069,0.69557 -3e-6,0.23167 -0.179565,0.48336 -0.56069,0.69298 -0.381127,0.20962 -0.938257,0.35191 -1.556493,0.35191 -0.917012,0 -1.691709,-0.33055 -1.973009,-0.68368 -0.05015,-0.063 -0.126222,-0.0996 -0.206705,-0.0997 l -6.287472,0.002 c -0.27928,0 -0.329694,-0.13126 -0.329694,-0.26355 0,-0.13229 0.05042,-0.26561 0.329694,-0.26561 l 6.287472,0.002 c 0.08048,-8e-5 0.156556,-0.0368 0.206705,-0.0997 0.282004,-0.35341 1.05649,-0.68161 1.823871,-0.6816 0.767382,0 1.324504,0.1397 1.705631,0.34933 z"
         sodipodi:nodetypes="ccsccccscccsccscssccscccscscccscscscccccccccccccccccccccccccccccsccscccscssccccccccsscccccscccccccccccscccscccccccscccccsccsssssccsssccscccsccs" />
    </g>
  </g>
</svg>
